<svg width="48" height="44" viewBox="0 0 48 44" fill="none" xmlns="http://www.w3.org/2000/svg">
<path d="M3 24.9976H38.58L27.69 38.0776C27.4379 38.3809 27.2479 38.731 27.1311 39.1077C27.0142 39.4845 26.9727 39.8805 27.0089 40.2733C27.0821 41.0666 27.4673 41.7984 28.08 42.3076C28.6926 42.8168 29.4825 43.0618 30.2758 42.9886C31.0691 42.9155 31.8008 42.5302 32.31 41.9176L47.31 23.9176C47.4109 23.7744 47.5012 23.624 47.58 23.4676C47.58 23.3176 47.73 23.2276 47.79 23.0776C47.926 22.7336 47.9972 22.3674 48 21.9976C47.9972 21.6277 47.926 21.2615 47.79 20.9176C47.79 20.7676 47.64 20.6776 47.58 20.5276C47.5012 20.3711 47.4109 20.2207 47.31 20.0776L32.31 2.07756C32.0279 1.73892 31.6747 1.46658 31.2755 1.27991C30.8762 1.09325 30.4407 0.996849 30 0.997564C29.299 0.996195 28.6197 1.24032 28.08 1.68756C27.7762 1.93941 27.5251 2.24871 27.3411 2.59775C27.157 2.9468 27.0436 3.32872 27.0074 3.72165C26.9712 4.11458 27.0128 4.5108 27.1299 4.88761C27.2471 5.26442 27.4374 5.61442 27.69 5.91756L38.58 18.9976H3C2.20435 18.9976 1.44129 19.3136 0.87868 19.8762C0.316071 20.4389 0 21.2019 0 21.9976C0 22.7932 0.316071 23.5563 0.87868 24.1189C1.44129 24.6815 2.20435 24.9976 3 24.9976Z" fill="black"/>
</svg>
