<svg width="49" height="48" viewBox="0 0 49 48" fill="none" xmlns="http://www.w3.org/2000/svg">
<path fill-rule="evenodd" clip-rule="evenodd" d="M0.5 24C0.5 10.7452 11.2452 0 24.5 0C37.7548 0 48.5 10.7452 48.5 24C48.5 37.2548 37.7548 48 24.5 48C11.2452 48 0.5 37.2548 0.5 24ZM28.0583 18.6699H34.8376V16.7276H28.0583V18.6699ZM34.24 20.3003C33.4242 19.9395 32.5076 19.7583 31.4886 19.7583C29.7742 19.7583 28.3819 20.2944 27.3057 21.3591C26.2325 22.4267 25.6951 23.9606 25.6951 25.9608C25.6951 28.0932 26.2882 29.6345 27.4818 30.5804C28.6694 31.5278 30.0436 32 31.6015 32C33.4875 32 34.955 31.4387 36.0026 30.3176C36.6739 29.6108 37.0532 28.9143 37.136 28.2313H34.0128C33.8321 28.5698 33.6214 28.8342 33.3821 29.0257C32.9471 29.3776 32.3796 29.5543 31.6858 29.5543C31.0265 29.5543 30.4651 29.4088 29.9985 29.1193C29.2278 28.6545 28.8244 27.8422 28.7732 26.6855H37.2971C37.3106 25.6891 37.2775 24.9229 37.1947 24.3942C37.0532 23.4899 36.7432 22.694 36.26 22.008C35.7302 21.2299 35.0574 20.6597 34.24 20.3003ZM23.4449 17.6631C22.6396 16.5821 21.2744 16.0282 19.3448 16H11.7V31.6065H18.8285C19.6323 31.6065 20.3758 31.5382 21.0637 31.3971C21.7516 31.2546 22.3461 30.9947 22.8504 30.6131C23.2989 30.2805 23.6722 29.8706 23.9702 29.3851C24.4413 28.6515 24.6761 27.8214 24.6761 26.8963C24.6761 25.9994 24.4699 25.2362 24.0605 24.6096C23.6466 23.9814 23.0385 23.5226 22.2317 23.2316C22.7631 22.9643 23.1649 22.6673 23.4389 22.3436C23.9281 21.7645 24.1704 20.9968 24.1704 20.0449C24.1704 19.1198 23.9281 18.3269 23.4449 17.6631Z" fill="black"/>
<path fill-rule="evenodd" clip-rule="evenodd" d="M14.8533 18.71H18.2971C19.0542 18.71 19.6774 18.7916 20.1681 18.9535C20.734 19.1881 21.017 19.6677 21.017 20.3968C21.017 21.0502 20.8017 21.5075 20.3743 21.7659C19.9438 22.0243 19.3854 22.1535 18.7005 22.1535H14.8533V18.71ZM29.6642 22.9078C30.0962 22.4683 30.7073 22.2485 31.49 22.2485C32.2125 22.2485 32.8161 22.4549 33.3068 22.8692C33.7914 23.2865 34.0654 23.8923 34.1211 24.6942H28.8484C28.9598 23.9428 29.2322 23.3474 29.6642 22.9078ZM14.8533 24.7358H18.7487C19.426 24.7417 19.9543 24.8308 20.3306 25.0001C21.0034 25.3045 21.3376 25.8613 21.3376 26.6751C21.3376 27.6343 20.9914 28.2817 20.2975 28.6233C19.9167 28.8059 19.3808 28.898 18.6945 28.898H14.8533V24.7358Z" fill="black"/>
</svg>
