<svg width="49" height="48" viewBox="0 0 49 48" fill="none" xmlns="http://www.w3.org/2000/svg">
<path fill-rule="evenodd" clip-rule="evenodd" d="M0.5 24C0.5 10.7452 11.2452 0 24.5 0C37.7548 0 48.5 10.7452 48.5 24C48.5 37.2548 37.7548 48 24.5 48C11.2452 48 0.5 37.2548 0.5 24ZM24.5012 11.2C21.0249 11.2 20.5886 11.2152 19.2233 11.2773C17.8606 11.3397 16.9305 11.5555 16.1166 11.872C15.2747 12.1989 14.5606 12.6363 13.8491 13.348C13.1371 14.0595 12.6997 14.7736 12.3717 15.6152C12.0544 16.4294 11.8384 17.3598 11.7771 18.7219C11.716 20.0873 11.7 20.5238 11.7 24.0001C11.7 27.4764 11.7155 27.9114 11.7773 29.2767C11.84 30.6394 12.0557 31.5695 12.372 32.3834C12.6992 33.2253 13.1365 33.9394 13.8483 34.6509C14.5595 35.3629 15.2736 35.8013 16.115 36.1283C16.9294 36.4448 17.8598 36.6605 19.2222 36.7229C20.5876 36.7851 21.0236 36.8003 24.4996 36.8003C27.9762 36.8003 28.4111 36.7851 29.7765 36.7229C31.1391 36.6605 32.0703 36.4448 32.8848 36.1283C33.7264 35.8013 34.4394 35.3629 35.1506 34.6509C35.8626 33.9394 36.3 33.2253 36.628 32.3837C36.9427 31.5695 37.1587 30.6391 37.2227 29.277C37.284 27.9116 37.3 27.4764 37.3 24.0001C37.3 20.5238 37.284 20.0876 37.2227 18.7222C37.1587 17.3595 36.9427 16.4294 36.628 15.6155C36.3 14.7736 35.8626 14.0595 35.1506 13.348C34.4386 12.636 33.7266 12.1987 32.884 11.872C32.0679 11.5555 31.1373 11.3397 29.7746 11.2773C28.4092 11.2152 27.9746 11.2 24.4972 11.2H24.5012Z" fill="black"/>
<path fill-rule="evenodd" clip-rule="evenodd" d="M23.3529 13.5067C23.6937 13.5062 24.074 13.5067 24.5012 13.5067C27.9188 13.5067 28.3239 13.519 29.6735 13.5803C30.9215 13.6374 31.5989 13.8459 32.0501 14.0211C32.6474 14.2531 33.0733 14.5304 33.521 14.9784C33.969 15.4264 34.2464 15.8531 34.4789 16.4505C34.6541 16.9011 34.8629 17.5785 34.9197 18.8265C34.981 20.1758 34.9944 20.5812 34.9944 23.9972C34.9944 27.4132 34.981 27.8186 34.9197 29.1679C34.8626 30.4159 34.6541 31.0933 34.4789 31.5439C34.2469 32.1413 33.969 32.5666 33.521 33.0144C33.073 33.4624 32.6477 33.7397 32.0501 33.9717C31.5994 34.1477 30.9215 34.3557 29.6735 34.4128C28.3242 34.4741 27.9188 34.4874 24.5012 34.4874C21.0833 34.4874 20.6782 34.4741 19.3289 34.4128C18.0809 34.3552 17.4035 34.1466 16.9521 33.9714C16.3547 33.7394 15.928 33.4621 15.48 33.0141C15.032 32.5661 14.7547 32.1405 14.5222 31.5429C14.347 31.0922 14.1382 30.4149 14.0814 29.1669C14.02 27.8175 14.0078 27.4122 14.0078 23.994C14.0078 20.5758 14.02 20.1726 14.0814 18.8233C14.1384 17.5753 14.347 16.8979 14.5222 16.4467C14.7542 15.8494 15.032 15.4227 15.48 14.9747C15.928 14.5267 16.3547 14.2494 16.9521 14.0168C17.4033 13.8408 18.0809 13.6328 19.3289 13.5755C20.5097 13.5222 20.9673 13.5062 23.3529 13.5035V13.5067ZM31.3338 15.632C30.4858 15.632 29.7978 16.3193 29.7978 17.1675C29.7978 18.0155 30.4858 18.7035 31.3338 18.7035C32.1818 18.7035 32.8698 18.0155 32.8698 17.1675C32.8698 16.3195 32.1818 15.632 31.3338 15.632ZM24.5012 17.4267C20.871 17.4267 17.9278 20.37 17.9278 24.0001C17.9278 27.6303 20.871 30.5722 24.5012 30.5722C28.1314 30.5722 31.0735 27.6303 31.0735 24.0001C31.0735 20.37 28.1314 17.4267 24.5012 17.4267Z" fill="black"/>
<path fill-rule="evenodd" clip-rule="evenodd" d="M24.5012 19.7334C26.8575 19.7334 28.7679 21.6436 28.7679 24.0001C28.7679 26.3564 26.8575 28.2668 24.5012 28.2668C22.1446 28.2668 20.2345 26.3564 20.2345 24.0001C20.2345 21.6436 22.1446 19.7334 24.5012 19.7334Z" fill="black"/>
</svg>
