<svg width="49" height="48" viewBox="0 0 49 48" fill="none" xmlns="http://www.w3.org/2000/svg">
<path fill-rule="evenodd" clip-rule="evenodd" d="M0.5 24C0.5 10.7452 11.2452 0 24.5 0C37.7548 0 48.5 10.7452 48.5 24C48.5 37.2548 37.7548 48 24.5 48C11.2452 48 0.5 37.2548 0.5 24ZM17.4605 19.8778H12.0216V36.2196H17.4605V19.8778ZM17.8188 14.8227C17.7835 13.2204 16.6377 12 14.777 12C12.9164 12 11.7 13.2204 11.7 14.8227C11.7 16.3918 12.8805 17.6473 14.7064 17.6473H14.7412C16.6377 17.6473 17.8188 16.3918 17.8188 14.8227ZM37.0754 26.8497C37.0754 21.8303 34.3922 19.4941 30.8131 19.4941C27.9254 19.4941 26.6325 21.0802 25.9107 22.1929V19.8783H20.4711C20.5428 21.4117 20.4711 36.22 20.4711 36.22H25.9107V27.0934C25.9107 26.605 25.946 26.1178 26.0898 25.7682C26.4829 24.7924 27.3779 23.7822 28.8805 23.7822C30.8494 23.7822 31.6365 25.2807 31.6365 27.4767V36.2196H37.0752L37.0754 26.8497Z" fill="black"/>
</svg>
